<?xml version="1.0" encoding="utf-8"?>
<!-- Generator: Adobe Illustrator 27.6.1, SVG Export Plug-In . SVG Version: 6.00 Build 0)  -->
<svg version="1.1" id="Layer_1" xmlns="http://www.w3.org/2000/svg" xmlns:xlink="http://www.w3.org/1999/xlink" x="0px" y="0px"
	 viewBox="0 0 546 139" style="enable-background:new 0 0 546 139;" xml:space="preserve">
<style type="text/css">
	.st0{fill:#00AEEF;}
	.st1{fill:#00ACEC;}
</style>
<g>
	<g>
		<path class="st0" d="M510.7,94H501l-5.3-12.6H471L465.7,94h-9.4l23-52.6h8.5L510.7,94z M483.3,52.4l-8.9,20.9h18L483.3,52.4z"/>
		<path class="st0" d="M529.2,41.9V94h-9.1V41.9H529.2z"/>
		<g>
			<path class="st0" d="M138.8,92.9c-2.5,1.4-5.6,2.1-9.5,2.1c-2.9,0-5.6-0.5-8.1-1.6c-2.5-1.1-4.6-2.5-6.5-4.4
				c-1.8-1.9-3.3-4-4.3-6.5c-1-2.5-1.5-5.1-1.5-7.9c0-2.8,0.5-5.5,1.5-8c1-2.5,2.5-4.7,4.3-6.6c1.8-1.9,4-3.4,6.5-4.5
				c2.5-1.1,5.2-1.6,8.2-1.6c3.7,0,6.8,0.6,9.3,1.9c2.5,1.2,4.6,2.9,6.4,4.9l-5.6,6c-1.4-1.4-2.9-2.6-4.4-3.5
				c-1.6-0.9-3.5-1.4-5.8-1.4c-1.6,0-3.2,0.3-4.5,1c-1.4,0.7-2.6,1.6-3.6,2.7c-1,1.1-1.8,2.5-2.3,4c-0.6,1.5-0.9,3.1-0.9,4.9
				c0,1.8,0.3,3.5,0.9,5c0.6,1.5,1.4,2.9,2.4,4c1,1.1,2.3,2,3.7,2.7c1.4,0.7,3,1,4.8,1c2.1,0,4-0.5,5.6-1.4c1.6-0.9,3.1-2.1,4.6-3.5
				l5.4,5.4C143.5,89.7,141.3,91.5,138.8,92.9z"/>
			<path class="st0" d="M187.8,82.3c-1.1,2.5-2.5,4.7-4.4,6.5c-1.9,1.9-4.1,3.3-6.7,4.4c-2.6,1.1-5.4,1.6-8.4,1.6
				c-3,0-5.8-0.5-8.3-1.6c-2.6-1.1-4.8-2.5-6.6-4.4c-1.9-1.9-3.3-4-4.4-6.5c-1-2.5-1.6-5.1-1.6-7.9c0-2.8,0.5-5.5,1.6-8
				c1.1-2.5,2.5-4.7,4.4-6.6c1.9-1.9,4.1-3.3,6.6-4.4c2.6-1.1,5.4-1.6,8.4-1.6c3,0,5.8,0.5,8.4,1.6c2.6,1.1,4.8,2.5,6.6,4.4
				s3.3,4,4.4,6.5c1,2.5,1.6,5.1,1.6,8C189.4,77.2,188.9,79.8,187.8,82.3z M179.4,69.6c-0.6-1.5-1.4-2.9-2.5-4.1
				c-1.1-1.2-2.3-2.1-3.8-2.8c-1.5-0.7-3.1-1-4.9-1c-1.8,0-3.4,0.3-4.9,1c-1.5,0.7-2.7,1.6-3.7,2.7c-1,1.1-1.8,2.5-2.4,4
				c-0.5,1.5-0.8,3.1-0.8,4.9c0,1.7,0.3,3.4,0.9,5c0.6,1.6,1.4,2.9,2.5,4.1c1.1,1.1,2.3,2,3.8,2.7c1.5,0.7,3.1,1,4.8,1
				c1.8,0,3.5-0.3,4.9-1c1.5-0.7,2.7-1.6,3.7-2.7c1-1.1,1.8-2.5,2.4-4c0.5-1.5,0.8-3.1,0.8-4.9S180,71.1,179.4,69.6z"/>
			<path class="st0" d="M234,55.8c2.2-1.3,4.7-1.9,7.7-1.9c4.3,0,7.7,1.3,10.1,3.9c2.4,2.6,3.7,6.3,3.7,11.1V94h-9.1V71.7
				c0-3.1-0.7-5.5-2.1-7.1c-1.4-1.6-3.3-2.5-5.9-2.5c-2.5,0-4.5,0.8-6,2.5c-1.6,1.7-2.3,4.1-2.3,7.3V94H221V71.6
				c0-3.1-0.7-5.4-2.1-7.1c-1.4-1.6-3.3-2.5-5.9-2.5s-4.6,0.9-6.1,2.6c-1.5,1.7-2.3,4.1-2.3,7.2V94h-9.1V54.7h9.1v6
				c0.6-0.9,1.3-1.8,2.1-2.6c0.7-0.8,1.6-1.5,2.6-2.2c1-0.7,2.1-1.2,3.3-1.5c1.2-0.4,2.6-0.6,4.1-0.6c2.8,0,5.2,0.6,7.2,1.9
				s3.5,3,4.5,5.1C230,58.7,231.8,57,234,55.8z"/>
			<path class="st0" d="M302.6,83.1c-1,2.5-2.4,4.7-4.1,6.4c-1.7,1.8-3.7,3.1-5.9,4c-2.2,0.9-4.5,1.3-6.8,1.3
				c-3.2,0-5.9-0.7-8.1-2.1c-2.1-1.4-3.9-3-5.3-4.8l0.1,18h-9.1V54.7h9.1v6.6c1.4-2.1,3.2-3.8,5.4-5.3c2.1-1.4,4.8-2.1,8-2.1
				c2.3,0,4.6,0.4,6.8,1.3c2.2,0.9,4.1,2.2,5.8,4c1.7,1.8,3.1,3.9,4.1,6.4c1,2.5,1.6,5.4,1.6,8.7S303.6,80.5,302.6,83.1z
				 M294.2,69.1c-0.6-1.6-1.4-2.9-2.4-4c-1-1.1-2.2-1.9-3.6-2.5c-1.4-0.6-2.8-0.9-4.4-0.9c-1.5,0-3,0.3-4.4,0.9
				c-1.4,0.6-2.6,1.5-3.7,2.6c-1,1.1-1.9,2.4-2.5,4c-0.6,1.5-0.9,3.3-0.9,5.2s0.3,3.7,0.9,5.2c0.6,1.5,1.5,2.9,2.5,4s2.3,2,3.7,2.6
				c1.4,0.6,2.9,0.9,4.4,0.9c1.5,0,3-0.3,4.4-0.9c1.4-0.6,2.6-1.4,3.6-2.5c1-1.1,1.8-2.4,2.4-4c0.6-1.6,0.9-3.3,0.9-5.3
				S294.7,70.7,294.2,69.1z"/>
			<path class="st0" d="M320.5,94h-9.1V54.7h9.1v7.9c1.2-3,3-4.4,5.3-6.2c2.3-1.8,5.2-2.6,8.6-2.5v9.5h-0.5c-2,0-3.8,0.3-5.4,1
				c-1.6,0.6-3.1,1.6-4.2,2.9c-1.2,1.3-2.1,2.9-2.8,4.9c-0.6,2-1,4.2-1,6.8V94z"/>
			<path class="st0" d="M351.6,85c2,1.7,4.5,2.6,7.5,2.6c2.2,0,4.2-0.4,5.8-1.2c1.6-0.8,3.3-2,4.8-3.5l5.3,4.7
				c-1.9,2.2-4.1,4-6.7,5.4c-2.6,1.3-5.7,2-9.4,2c-2.8,0-5.5-0.5-7.9-1.5c-2.5-1-4.6-2.4-6.4-4.2c-1.8-1.8-3.2-3.9-4.3-6.4
				c-1-2.5-1.6-5.3-1.6-8.4c0-2.8,0.5-5.5,1.4-8c0.9-2.5,2.3-4.7,4-6.5c1.7-1.9,3.7-3.3,6.1-4.4c2.3-1.1,4.9-1.6,7.8-1.6
				c3.1,0,5.9,0.6,8.2,1.7c2.4,1.1,4.3,2.7,5.9,4.6c1.6,1.9,2.7,4.2,3.5,6.8c0.8,2.6,1.2,5.3,1.2,8.1c0,0.4,0,0.8,0,1.2
				c0,0.4-0.1,0.8-0.1,1.3h-28.9C348.3,80.8,349.5,83.3,351.6,85z M367.8,71.6c-0.1-1.4-0.5-2.8-1-4.1c-0.5-1.3-1.2-2.4-2-3.3
				c-0.8-0.9-1.9-1.7-3-2.2c-1.2-0.5-2.5-0.8-4-0.8c-2.8,0-5.1,1-6.9,2.9c-1.8,1.9-2.9,4.4-3.3,7.5H367.8z"/>
			<path class="st0" d="M412.9,87.8c-0.7,1.5-1.8,2.8-3.1,3.8c-1.3,1-2.9,1.8-4.7,2.3c-1.8,0.5-3.7,0.8-5.7,0.8
				c-2.8,0-5.7-0.5-8.6-1.5c-2.9-1-5.6-2.5-8.1-4.4l4-6.1c2.1,1.6,4.3,2.8,6.5,3.6c2.2,0.8,4.3,1.2,6.4,1.2c1.9,0,3.4-0.4,4.5-1.2
				c1.1-0.8,1.6-1.8,1.6-3.1v-0.1c0-0.7-0.2-1.4-0.7-1.9c-0.5-0.5-1.1-1-1.9-1.5c-0.8-0.4-1.8-0.8-2.8-1.1c-1.1-0.3-2.2-0.7-3.3-1
				c-1.4-0.4-2.9-0.9-4.4-1.5c-1.5-0.5-2.8-1.3-4-2.1c-1.2-0.9-2.1-1.9-2.9-3.2c-0.7-1.3-1.1-2.8-1.1-4.7V66c0-1.8,0.4-3.5,1.1-5
				c0.7-1.5,1.7-2.8,3-3.8c1.3-1,2.8-1.8,4.5-2.4c1.7-0.5,3.5-0.8,5.5-0.8c2.5,0,5,0.4,7.5,1.2s4.8,1.9,6.9,3.3l-3.6,6.4
				c-1.9-1.1-3.8-2.1-5.7-2.7c-1.9-0.7-3.7-1-5.4-1c-1.7,0-3.1,0.4-4.1,1.1c-1,0.7-1.5,1.7-1.5,2.8v0.1c0,0.7,0.2,1.3,0.7,1.8
				c0.5,0.5,1.2,1,2,1.4c0.8,0.4,1.8,0.8,2.8,1.2c1.1,0.4,2.2,0.7,3.3,1.1c1.4,0.4,2.9,1,4.3,1.6c1.4,0.6,2.7,1.3,3.9,2.2
				c1.2,0.9,2.1,1.9,2.9,3.2s1.1,2.8,1.1,4.5v0.1C414,84.5,413.6,86.3,412.9,87.8z"/>
			<path class="st0" d="M449.4,87.8c-0.7,1.5-1.8,2.8-3.1,3.8c-1.3,1-2.9,1.8-4.7,2.3c-1.8,0.5-3.7,0.8-5.7,0.8
				c-2.8,0-5.7-0.5-8.6-1.5c-2.9-1-5.6-2.5-8.1-4.4l4-6.1c2.1,1.6,4.3,2.8,6.5,3.6c2.2,0.8,4.3,1.2,6.4,1.2c1.9,0,3.4-0.4,4.5-1.2
				c1.1-0.8,1.6-1.8,1.6-3.1v-0.1c0-0.7-0.2-1.4-0.7-1.9c-0.5-0.5-1.1-1-1.9-1.5c-0.8-0.4-1.8-0.8-2.8-1.1c-1.1-0.3-2.2-0.7-3.3-1
				c-1.4-0.4-2.9-0.9-4.4-1.5c-1.5-0.5-2.8-1.3-4-2.1c-1.2-0.9-2.1-1.9-2.9-3.2c-0.7-1.3-1.1-2.8-1.1-4.7V66c0-1.8,0.4-3.5,1.1-5
				c0.7-1.5,1.7-2.8,3-3.8c1.3-1,2.8-1.8,4.5-2.4c1.7-0.5,3.5-0.8,5.5-0.8c2.5,0,5,0.4,7.5,1.2s4.8,1.9,6.9,3.3l-3.6,6.4
				c-1.9-1.1-3.8-2.1-5.7-2.7c-1.9-0.7-3.7-1-5.4-1c-1.7,0-3.1,0.4-4.1,1.1c-1,0.7-1.5,1.7-1.5,2.8v0.1c0,0.7,0.2,1.3,0.7,1.8
				c0.5,0.5,1.2,1,2,1.4c0.8,0.4,1.8,0.8,2.8,1.2c1.1,0.4,2.2,0.7,3.3,1.1c1.4,0.4,2.9,1,4.3,1.6c1.4,0.6,2.7,1.3,3.9,2.2
				c1.2,0.9,2.1,1.9,2.9,3.2s1.1,2.8,1.1,4.5v0.1C450.5,84.5,450.1,86.3,449.4,87.8z"/>
		</g>
	</g>
	<path class="st1" d="M88.3,68.9l-37-28c-1.5-1.1-3.3-1.7-5.2-1.7c-1.3,0-2.6,0.3-3.8,0.9c-2.9,1.5-4.8,4.4-4.8,7.7
		c0,2-0.1,48.2-0.1,48.3c0,3.5-2.8,6.3-6.3,6.3c-3.5,0-6.3-2.8-6.3-6.3c0-0.1,0-29.1,0-37c3.9-1.5,6.6-5.3,6.6-9.6
		c0-5.6-4.6-10.2-10.2-10.2S11,43.8,11,49.5c0,4.3,2.6,8,6.5,9.6c0,7.9,0,36.9,0,37c0,7.5,6.1,13.6,13.6,13.6
		c7.5,0,13.6-6.1,13.6-13.6c0-0.1,0.1-48.3,0.1-48.3c0-0.5,0.3-0.9,0.7-1.1c0.2-0.1,0.4-0.1,0.6-0.1c0.3,0,0.5,0.1,0.8,0.3l37,28
		c0.3,0.2,0.5,0.6,0.5,1c0,0.4-0.2,0.8-0.5,1l-18.5,14c-1.6-1-3.4-1.5-5.4-1.5c-5.6,0-10.2,4.6-10.2,10.2c0,5.6,4.6,10.2,10.2,10.2
		c5.6,0,10.2-4.6,10.2-10.2c0-1-0.1-2-0.4-2.9l18.5-14c2.1-1.6,3.4-4.2,3.4-6.8C91.7,73.1,90.4,70.5,88.3,68.9 M21.2,53.2
		c-2.1,0-3.7-1.7-3.7-3.7s1.7-3.7,3.7-3.7s3.7,1.7,3.7,3.7S23.3,53.2,21.2,53.2 M60,103.2c-2.1,0-3.7-1.7-3.7-3.7s1.7-3.7,3.7-3.7
		c2.1,0,3.7,1.7,3.7,3.7S62.1,103.2,60,103.2"/>
</g>
<g>
	<path class="st1" d="M76.8,106.8c0,1.6-1.2,2.8-2.8,2.8c-1.6,0-2.8-1.2-2.8-2.8c0-1.5,1.3-2.7,2.8-2.7
		C75.6,104.1,76.8,105.3,76.8,106.8z M71.9,106.8c0,1.2,0.9,2.2,2.1,2.2c1.2,0,2.1-1,2.1-2.2c0-1.2-0.9-2.2-2.1-2.2
		S71.9,105.6,71.9,106.8z M73.5,108.2h-0.6v-2.7c0.3-0.1,0.6-0.1,1.1-0.1c0.5,0,0.8,0.1,1,0.2c0.2,0.1,0.3,0.3,0.3,0.6
		c0,0.3-0.2,0.5-0.6,0.6v0c0.3,0.1,0.4,0.3,0.5,0.7c0.1,0.4,0.1,0.6,0.2,0.7h-0.7c-0.1-0.1-0.1-0.4-0.2-0.7
		c-0.1-0.3-0.2-0.4-0.6-0.4h-0.3V108.2z M73.6,106.7h0.3c0.4,0,0.6-0.1,0.6-0.4c0-0.3-0.2-0.4-0.6-0.4c-0.2,0-0.3,0-0.4,0V106.7z"/>
</g>
</svg>
